<svg width="3122" height="2652" viewBox="0 0 1561 1326" fill="none" xmlns="http://www.w3.org/2000/svg">
<g opacity="0.5">
<g filter="url(#filter0_f_67_36)">
<path fill-rule="evenodd" clip-rule="evenodd" d="M1002.24 776.341C996.321 840.962 934.597 889.564 878.544 924.418C834.132 952.034 786.439 946.73 739.596 939.653C690.556 932.243 629.068 932.171 612.805 884.266C596.801 837.125 649.885 789.932 671.671 739.569C698.329 677.944 691.67 590.996 750.907 565.02C811.456 538.469 859.329 599.072 904.829 637.328C949.754 675.101 1008.2 711.203 1002.24 776.341Z" fill="#FF585F"/>
<path fill-rule="evenodd" clip-rule="evenodd" d="M781.894 426.033C809.336 442.832 848.599 444.189 862.844 474.183C877.85 505.778 867.898 546.837 856.883 583.928C845.121 623.537 833.812 671.979 798.21 691.824C762.419 711.773 727.734 677.008 689.651 677.143C655.655 677.264 620.17 703.339 589.194 692.565C554.237 680.407 527.973 651.207 513.618 615.919C497.848 577.151 479.43 526.381 505.887 487.769C533.591 447.337 591.623 462.92 633.532 440.916C662.375 425.771 679.345 383.68 709.983 380.606C740.671 377.528 757.101 410.855 781.894 426.033Z" fill="#FF585F"/>
<path fill-rule="evenodd" clip-rule="evenodd" d="M705.823 748.596C692.296 796.851 749.711 850.997 714.991 888.324C680.525 925.378 628.228 880.365 582.439 881.245C549.819 881.873 517.504 898.707 486.268 892.723C448.034 885.398 402.661 879.154 385.953 843.6C369.204 807.957 392.67 761.42 404.93 719.637C416.184 681.285 426.656 641.936 453.955 611.85C481.796 581.167 518.436 557.841 556.191 552.937C592.193 548.26 617.202 578.828 651.148 586.236C698.949 596.668 778.403 557.325 794.434 604.931C811.028 654.205 721.095 694.117 705.823 748.596Z" fill="#FF585F"/>
<path fill-rule="evenodd" clip-rule="evenodd" d="M1180.28 725.354C1174.83 767.262 1124.63 789.032 1092.33 818.098C1068.41 839.625 1044.84 859.343 1016.68 872.59C986.594 886.743 955.65 900.12 925.117 896.754C891.28 893.024 856.183 881.873 838.766 852.977C821.477 824.292 835.61 783.94 835.377 747.865C835.113 707.021 821.014 667.573 837.313 627.938C856.549 581.16 885.978 524.183 932.044 512.791C978.948 501.192 1009.05 551.618 1046.16 576.29C1072.15 593.569 1095.1 611.804 1116.11 635.162C1141.2 663.046 1185.68 683.857 1180.28 725.354Z" fill="#FF585F"/>
</g>
</g>
<defs>
<filter id="filter0_f_67_36" x="0.127441" y="0.406738" width="1560.6" height="1324.92" filterUnits="userSpaceOnUse" color-interpolation-filters="sRGB">
<feFlood flood-opacity="0" result="BackgroundImageFix"/>
<feBlend mode="normal" in="SourceGraphic" in2="BackgroundImageFix" result="shape"/>
<feGaussianBlur stdDeviation="190" result="effect1_foregroundBlur_67_36"/>
</filter>
</defs>
</svg>
