<svg xmlns="http://www.w3.org/2000/svg" width="221" height="48" viewBox="0 0 221 48" fill="none"><path d="M4.48 35V31.672H10.72C11.8933 31.672 12.8213 31.384 13.504 30.808C14.1867 30.232 14.528 29.4533 14.528 28.472C14.528 27.4053 14.144 26.5733 13.376 25.976C12.6293 25.3573 11.5733 25.0587 10.208 25.08H4.48V22.136L8.352 22.2C10.3787 22.2 12.1387 22.4347 13.632 22.904C15.1253 23.352 16.2773 24.056 17.088 25.016C17.8987 25.976 18.304 27.2133 18.304 28.728C18.304 30.0507 18.0053 31.1813 17.408 32.12C16.8107 33.0587 15.968 33.7733 14.88 34.264C13.792 34.7547 12.5013 35 11.008 35H4.48ZM2.656 35V12.6H6.304V35H2.656ZM4.384 25.24V22.008H10.368C11.4347 22.008 12.2667 21.7307 12.864 21.176C13.4827 20.6 13.792 19.8107 13.792 18.808C13.792 17.784 13.44 16.9947 12.736 16.44C12.0533 15.8853 11.0933 15.6187 9.856 15.64H4.384V12.632L10.048 12.568C11.584 12.568 12.9067 12.8133 14.016 13.304C15.1467 13.7733 16.0213 14.4773 16.64 15.416C17.2587 16.3333 17.568 17.4853 17.568 18.872C17.568 20.0453 17.2053 21.1013 16.48 22.04C15.776 22.9573 14.7627 23.6827 13.44 24.216C12.1387 24.7493 10.6027 25.016 8.832 25.016L4.384 25.24ZM21.5778 35V12.6H25.1618V35H21.5778ZM36.5003 35.384C34.9003 35.384 33.4709 35.032 32.2123 34.328C30.9749 33.6027 30.0043 32.6107 29.3003 31.352C28.5963 30.0933 28.2443 28.6427 28.2443 27C28.2443 25.3573 28.5856 23.9067 29.2682 22.648C29.9723 21.3893 30.9429 20.408 32.1803 19.704C33.4176 18.9787 34.8363 18.616 36.4363 18.616C38.0363 18.616 39.4549 18.9787 40.6923 19.704C41.9296 20.408 42.8896 21.3893 43.5723 22.648C44.2763 23.9067 44.6283 25.3573 44.6283 27C44.6283 28.6427 44.2869 30.0933 43.6042 31.352C42.9216 32.6107 41.9616 33.6027 40.7243 34.328C39.4869 35.032 38.0789 35.384 36.5003 35.384ZM36.5003 32.088C37.3749 32.088 38.1536 31.8747 38.8363 31.448C39.5189 31 40.0523 30.4027 40.4363 29.656C40.8203 28.888 41.0123 28.0027 41.0123 27C41.0123 25.9973 40.8096 25.1227 40.4043 24.376C40.0203 23.608 39.4869 23.0107 38.8043 22.584C38.1216 22.136 37.3323 21.912 36.4363 21.912C35.5403 21.912 34.7509 22.1253 34.0683 22.552C33.3856 22.9787 32.8523 23.576 32.4683 24.344C32.0843 25.112 31.8923 25.9973 31.8923 27C31.8923 28.0027 32.0843 28.888 32.4683 29.656C32.8736 30.4027 33.4176 31 34.1003 31.448C34.8043 31.8747 35.6043 32.088 36.5003 32.088ZM55.222 35.384C53.5793 35.384 52.1287 35.032 50.87 34.328C49.6113 33.6027 48.6193 32.6107 47.894 31.352C47.19 30.0933 46.838 28.6427 46.838 27C46.838 25.3573 47.19 23.9067 47.894 22.648C48.6193 21.3893 49.6007 20.408 50.838 19.704C52.0967 18.9787 53.5367 18.616 55.158 18.616C56.7367 18.616 58.166 19 59.446 19.768C60.726 20.5147 61.6753 21.592 62.294 23L58.966 24.28C58.6247 23.576 58.102 23.0107 57.398 22.584C56.694 22.1573 55.894 21.944 54.998 21.944C54.1233 21.944 53.3447 22.168 52.662 22.616C51.9793 23.0427 51.446 23.64 51.062 24.408C50.678 25.1547 50.486 26.0187 50.486 27C50.486 27.9813 50.678 28.856 51.062 29.624C51.4673 30.3707 52.0113 30.968 52.694 31.416C53.398 31.8427 54.1873 32.056 55.062 32.056C55.958 32.056 56.758 31.832 57.462 31.384C58.166 30.9147 58.6887 30.2853 59.03 29.496L62.358 30.776C61.7393 32.2267 60.79 33.3573 59.51 34.168C58.2513 34.9787 56.822 35.384 55.222 35.384ZM68.5643 30.52L66.3883 28.056L74.7083 19H79.0283L68.5643 30.52ZM65.1403 35V12.6H68.7243V35H65.1403ZM75.3163 35L69.6843 26.712L72.0203 24.216L79.5723 35H75.3163ZM93.3195 29.24L82.6315 13.56L84.2955 12.952L86.3115 12.6L95.2075 25.72L93.3195 29.24ZM82.3435 35V12.6H86.0555V35H82.3435ZM93.3195 29.24L91.4955 25.72L100.328 12.6L102.376 12.952L104.008 13.496L93.3195 29.24ZM100.616 35V12.6H104.328V35H100.616ZM109.177 35L109.209 19H112.761L112.729 35H109.177ZM110.969 15.96C110.393 15.96 109.891 15.7573 109.465 15.352C109.059 14.9253 108.857 14.424 108.857 13.848C108.857 13.272 109.059 12.7813 109.465 12.376C109.891 11.9707 110.393 11.768 110.969 11.768C111.545 11.768 112.035 11.9707 112.441 12.376C112.867 12.7813 113.081 13.272 113.081 13.848C113.081 14.424 112.867 14.9253 112.441 15.352C112.035 15.7573 111.545 15.96 110.969 15.96ZM116.953 35V19H120.313L120.537 21.944V35H116.953ZM127.801 35V26.808L131.385 25.848V35H127.801ZM127.801 26.808C127.801 25.528 127.651 24.5467 127.353 23.864C127.075 23.16 126.67 22.6693 126.137 22.392C125.625 22.1147 125.017 21.976 124.313 21.976C123.118 21.9547 122.19 22.3493 121.529 23.16C120.867 23.9707 120.537 25.1333 120.537 26.648H119.193C119.193 24.9627 119.438 23.5227 119.929 22.328C120.419 21.112 121.123 20.1947 122.041 19.576C122.958 18.936 124.046 18.616 125.305 18.616C127.246 18.616 128.739 19.2133 129.785 20.408C130.851 21.5813 131.385 23.3947 131.385 25.848L127.801 26.808ZM146.567 35L146.407 32.024V12.6H149.959V35H146.567ZM141.351 35.384C139.901 35.384 138.631 35.0427 137.543 34.36C136.477 33.656 135.634 32.6747 135.015 31.416C134.418 30.1573 134.119 28.6853 134.119 27C134.119 25.2933 134.418 23.8213 135.015 22.584C135.634 21.3253 136.477 20.3547 137.543 19.672C138.631 18.968 139.901 18.616 141.351 18.616C142.695 18.616 143.847 18.968 144.807 19.672C145.789 20.3547 146.535 21.3253 147.047 22.584C147.559 23.8213 147.815 25.2933 147.815 27C147.815 28.6853 147.559 30.1573 147.047 31.416C146.535 32.6747 145.789 33.656 144.807 34.36C143.847 35.0427 142.695 35.384 141.351 35.384ZM142.247 32.12C143.058 32.12 143.773 31.9067 144.391 31.48C145.031 31.032 145.522 30.424 145.863 29.656C146.226 28.888 146.407 28.0027 146.407 27C146.407 25.9973 146.226 25.112 145.863 24.344C145.522 23.576 145.031 22.9787 144.391 22.552C143.773 22.1253 143.047 21.912 142.215 21.912C141.362 21.912 140.605 22.1253 139.943 22.552C139.282 22.9787 138.759 23.576 138.375 24.344C138.013 25.112 137.821 25.9973 137.799 27C137.821 28.0027 138.013 28.888 138.375 29.656C138.759 30.424 139.282 31.032 139.943 31.48C140.626 31.9067 141.394 32.12 142.247 32.12Z" fill="white"></path><path d="M177.832 35L169.096 12.6H172.808L181.768 35H177.832ZM159.944 35L168.872 12.6H172.616L163.88 35H159.944ZM164.136 29.496V26.2H177.544V29.496H164.136ZM184.687 35V12.6H188.399V35H184.687Z" fill="#1E58EB"></path></svg>