<svg width="14" height="14" viewBox="0 0 14 14" fill="none" xmlns="http://www.w3.org/2000/svg">
<g id="bxs:brain">
<path id="Vector" d="M1.92438 10.2644C2.17638 11.0414 2.94229 11.5372 3.75954 11.5372H3.79163C3.8666 11.9032 4.06561 12.232 4.35502 12.4681C4.64443 12.7043 5.0065 12.8333 5.38004 12.8334C5.64663 12.8334 5.89571 12.7663 6.11621 12.6508C6.20823 12.6003 6.2848 12.5258 6.33772 12.4352C6.39064 12.3446 6.41791 12.2412 6.41663 12.1363V1.7658C6.4178 1.63215 6.37292 1.50218 6.28952 1.39775C6.20612 1.29332 6.0893 1.22079 5.95871 1.19238C5.66606 1.13554 5.36283 1.17675 5.09596 1.30963C4.66196 1.5173 4.40763 1.98105 4.40763 2.46346V2.49555C4.08283 2.42926 3.74552 2.46417 3.44119 2.59557C3.13686 2.72697 2.88015 2.94855 2.70568 3.23041C2.53121 3.51227 2.44737 3.84086 2.46548 4.17185C2.48359 4.50284 2.60278 4.82032 2.80696 5.08146C2.34967 5.15311 1.93305 5.38583 1.63227 5.73764C1.33148 6.08945 1.16633 6.53718 1.16663 7.00005C1.16663 7.68721 1.52304 8.2898 2.06088 8.64038C1.81004 9.09013 1.72779 9.65888 1.92438 10.2644ZM11.193 5.08146C11.3971 4.82032 11.5163 4.50284 11.5344 4.17185C11.5525 3.84086 11.4687 3.51227 11.2942 3.23041C11.1198 2.94855 10.8631 2.72697 10.5587 2.59557C10.2544 2.46417 9.91709 2.42926 9.59229 2.49555V2.46346C9.59229 1.98163 9.33738 1.5173 8.90338 1.30963C8.63673 1.17671 8.33367 1.13549 8.04121 1.19238C7.91067 1.22089 7.79391 1.29344 7.71053 1.39785C7.62715 1.50227 7.58222 1.63218 7.58329 1.7658V12.1357C7.58329 12.3486 7.69529 12.551 7.88429 12.6502C8.10479 12.7663 8.35329 12.8334 8.61988 12.8334C8.9935 12.8333 9.35563 12.7042 9.64505 12.4679C9.93448 12.2316 10.1334 11.9027 10.2083 11.5366H10.241C11.0576 11.5366 11.8241 11.0408 12.0761 10.2638C12.2727 9.6583 12.1905 9.08955 11.9396 8.6398C12.2136 8.46278 12.4389 8.21999 12.595 7.93358C12.7511 7.64717 12.833 7.32623 12.8333 7.00005C12.8336 6.53718 12.6684 6.08945 12.3677 5.73764C12.0669 5.38583 11.6502 5.15311 11.193 5.08146Z" fill="#F8D481"/>
</g>
</svg>
