<svg width="1440" height="1024" viewBox="0 0 1440 1024" fill="none" xmlns="http://www.w3.org/2000/svg">
<g opacity="0.15">
<g filter="url(#filter0_f_67_35)">
<path fill-rule="evenodd" clip-rule="evenodd" d="M919.238 571.34C913.321 635.962 851.597 684.564 795.544 719.418C751.132 747.034 703.439 741.73 656.596 734.653C607.556 727.243 546.068 727.171 529.805 679.266C513.801 632.125 566.885 584.932 588.671 534.569C615.329 472.944 608.67 385.996 667.907 360.02C728.456 333.469 776.329 394.072 821.829 432.328C866.754 470.101 925.202 506.203 919.238 571.34Z" fill="#FF585F"/>
<path fill-rule="evenodd" clip-rule="evenodd" d="M698.894 221.033C726.336 237.832 765.599 239.189 779.844 269.183C794.85 300.778 784.898 341.837 773.883 378.928C762.121 418.537 750.812 466.979 715.21 486.824C679.419 506.773 644.734 472.008 606.651 472.143C572.655 472.264 537.17 498.339 506.194 487.565C471.237 475.407 444.973 446.207 430.618 410.919C414.848 372.151 396.43 321.381 422.887 282.769C450.591 242.337 508.623 257.92 550.532 235.916C579.375 220.771 596.345 178.68 626.983 175.606C657.671 172.528 674.101 205.855 698.894 221.033Z" fill="#FF585F"/>
<path fill-rule="evenodd" clip-rule="evenodd" d="M622.823 543.596C609.296 591.851 666.711 645.997 631.991 683.324C597.525 720.378 545.228 675.365 499.439 676.245C466.819 676.873 434.504 693.707 403.268 687.723C365.034 680.398 319.661 674.154 302.953 638.6C286.204 602.957 309.67 556.42 321.93 514.637C333.184 476.285 343.656 436.936 370.955 406.85C398.796 376.167 435.436 352.841 473.191 347.937C509.193 343.26 534.202 373.828 568.148 381.236C615.949 391.668 695.403 352.325 711.434 399.931C728.028 449.205 638.095 489.117 622.823 543.596Z" fill="#FF585F"/>
<path fill-rule="evenodd" clip-rule="evenodd" d="M1097.28 520.354C1091.83 562.262 1041.63 584.032 1009.33 613.098C985.411 634.625 961.843 654.343 933.682 667.59C903.594 681.743 872.65 695.12 842.117 691.754C808.28 688.024 773.183 676.873 755.766 647.977C738.477 619.292 752.61 578.94 752.377 542.865C752.113 502.021 738.014 462.573 754.313 422.938C773.549 376.16 802.978 319.183 849.044 307.791C895.948 296.192 926.048 346.618 963.16 371.29C989.15 388.569 1012.1 406.804 1033.11 430.162C1058.2 458.046 1102.68 478.857 1097.28 520.354Z" fill="#FF585F"/>
</g>
</g>
<defs>
<filter id="filter0_f_67_35" x="-82.8726" y="-204.593" width="1560.6" height="1324.92" filterUnits="userSpaceOnUse" color-interpolation-filters="sRGB">
<feFlood flood-opacity="0" result="BackgroundImageFix"/>
<feBlend mode="normal" in="SourceGraphic" in2="BackgroundImageFix" result="shape"/>
<feGaussianBlur stdDeviation="190" result="effect1_foregroundBlur_67_35"/>
</filter>
</defs>
</svg>
