<svg width="17" height="17" viewBox="0 0 17 17" fill="none" xmlns="http://www.w3.org/2000/svg">
<g id="tabler:hand-rock">
<g id="Group">
<path id="Vector" d="M7.79163 8.14583V7.4375C7.79163 7.15571 7.90357 6.88546 8.10282 6.6862C8.30208 6.48694 8.57233 6.375 8.85413 6.375C9.13592 6.375 9.40617 6.48694 9.60543 6.6862C9.80468 6.88546 9.91663 7.15571 9.91663 7.4375V8.5" stroke="#FF585F" stroke-width="1.83333" stroke-linecap="round" stroke-linejoin="round"/>
<path id="Vector_2" d="M12.0417 8.49992V3.89575C12.0417 3.61396 12.1536 3.34371 12.3529 3.14445C12.5521 2.94519 12.8224 2.83325 13.1042 2.83325C13.386 2.83325 13.6562 2.94519 13.8555 3.14445C14.0547 3.34371 14.1667 3.61396 14.1667 3.89575V11.3333C14.1667 12.4604 13.7189 13.5414 12.9219 14.3385C12.1248 15.1355 11.0438 15.5833 9.91667 15.5833H8.50001H8.64734C7.9435 15.5834 7.25064 15.4087 6.63099 15.0749C6.01134 14.7411 5.48429 14.2586 5.09717 13.6708C5.05072 13.6 5.00444 13.5292 4.95834 13.4583C4.73734 13.119 3.96172 11.7668 2.63076 9.40092C2.49508 9.15975 2.45883 8.87517 2.52974 8.60769C2.60064 8.34022 2.7731 8.11096 3.01042 7.96867C3.26321 7.81699 3.55943 7.75413 3.85204 7.79006C4.14464 7.82599 4.41685 7.95866 4.62542 8.167L5.66667 9.20825" stroke="#FF585F" stroke-width="1.83333" stroke-linecap="round" stroke-linejoin="round"/>
<path id="Vector_3" d="M9.91663 7.4375C9.91663 7.15571 10.0286 6.88546 10.2278 6.6862C10.4271 6.48694 10.6973 6.375 10.9791 6.375C11.2609 6.375 11.5312 6.48694 11.7304 6.6862C11.9297 6.88546 12.0416 7.15571 12.0416 7.4375V8.5M5.66663 9.20833V3.1875C5.66663 2.90571 5.77857 2.63546 5.97782 2.4362C6.17708 2.23694 6.44733 2.125 6.72913 2.125C7.01092 2.125 7.28117 2.23694 7.48043 2.4362C7.67968 2.63546 7.79163 2.90571 7.79163 3.1875V8.5" stroke="#FF585F" stroke-width="1.83333" stroke-linecap="round" stroke-linejoin="round"/>
</g>
</g>
</svg>
