<svg width="160" height="46" viewBox="0 0 160 46" fill="none" xmlns="http://www.w3.org/2000/svg">
<g clip-path="url(#clip0_163_4)">
<path d="M6.27867 42.7847C6.00605 42.7847 5.77318 42.6857 5.58008 42.4878C5.38697 42.2899 5.29041 42.0571 5.29041 41.7893C5.29041 41.5215 5.38697 41.2887 5.58008 41.0908C5.77318 40.8929 6.00605 40.7939 6.27867 40.7939C6.53994 40.7939 6.76712 40.8929 6.96023 41.0908C7.15334 41.2887 7.24989 41.5215 7.24989 41.7893C7.24989 42.0571 7.15334 42.2899 6.96023 42.4878C6.76712 42.6857 6.53994 42.7847 6.27867 42.7847Z" fill="white"/>
<path d="M22.3123 42.7148C21.8125 42.7148 21.4036 42.6275 21.0855 42.4529C20.7675 42.2783 20.5232 42.0105 20.3528 41.6496C20.1824 41.277 20.0689 40.8114 20.0121 40.2526C19.9666 39.6937 19.9553 39.0301 19.978 38.2618L20.1824 32.5688L21.4604 32.4117L21.6308 32.3942L21.6478 32.5165C21.591 32.598 21.5399 32.6794 21.4944 32.7609C21.4604 32.8424 21.432 32.9821 21.4093 33.1801L21.2559 35.1534L21.307 35.4677L21.1877 38.3491C21.1537 39.2339 21.1764 39.9208 21.2559 40.4097C21.3354 40.887 21.4774 41.2188 21.6819 41.4051C21.8863 41.5797 22.159 41.6671 22.4997 41.6671C22.8746 41.6671 23.204 41.5914 23.488 41.44C23.7833 41.2887 24.09 41.0966 24.4081 40.8638L24.783 41.8591C24.3968 42.1502 23.9992 42.3656 23.5902 42.5053C23.1813 42.645 22.7553 42.7148 22.3123 42.7148ZM18.4104 34.612H24.0162V35.6423H18.4104V34.612Z" fill="white"/>
<path d="M34.2396 34.612H35.5175L35.4664 36.9346L35.313 36.6726C35.3812 36.3117 35.5005 35.9916 35.6709 35.7122C35.8413 35.4328 36.0457 35.1999 36.2843 35.0137C36.5228 34.8157 36.7841 34.6702 37.0681 34.5771C37.352 34.4723 37.6474 34.4199 37.9541 34.4199C38.363 34.4199 38.7379 34.4956 39.0787 34.6469C39.4308 34.7866 39.7432 35.002 40.0158 35.2931L39.4706 36.271L39.4024 36.4282L39.2831 36.3583C39.2604 36.2652 39.2263 36.1779 39.1809 36.0964C39.1355 36.0149 39.0389 35.9159 38.8912 35.7995C38.7095 35.6831 38.5391 35.6074 38.3801 35.5725C38.2324 35.5259 38.062 35.5026 37.8689 35.5026C37.5849 35.5026 37.3009 35.5608 37.0169 35.6773C36.733 35.782 36.4717 35.9508 36.2331 36.1837C36.006 36.4165 35.8242 36.7134 35.6879 37.0743C35.5516 37.4352 35.4834 37.8659 35.4834 38.3666V42.6101H34.2396V34.612Z" fill="white"/>
<path d="M50.8015 42.7847C49.9154 42.7847 49.2339 42.5809 48.7568 42.1735C48.2797 41.7544 48.0411 41.2247 48.0411 40.5843C48.0411 40.1536 48.1434 39.7694 48.3478 39.4318C48.5523 39.0825 48.8306 38.7915 49.1828 38.5586C49.5463 38.3142 49.9666 38.1279 50.4436 37.9998C50.9207 37.8718 51.4262 37.8077 51.9601 37.8077C52.1532 37.8077 52.3463 37.8136 52.5394 37.8252C52.7439 37.8252 52.954 37.8368 53.1699 37.8601C53.3971 37.8718 53.6299 37.8951 53.8685 37.93L53.9025 38.8904C53.6981 38.8555 53.4879 38.8322 53.2721 38.8206C53.0676 38.7973 52.8632 38.7798 52.6587 38.7682C52.4542 38.7566 52.2554 38.7507 52.0623 38.7507C51.6534 38.7507 51.2785 38.7857 50.9378 38.8555C50.597 38.9254 50.3016 39.0301 50.0517 39.1698C49.8018 39.3096 49.6087 39.49 49.4724 39.7112C49.3361 39.9324 49.268 40.2002 49.268 40.5145C49.268 40.759 49.3077 40.9685 49.3872 41.1432C49.4781 41.3062 49.5974 41.44 49.745 41.5448C49.8927 41.6379 50.0631 41.7078 50.2562 41.7544C50.4607 41.8009 50.6822 41.8242 50.9207 41.8242C51.3637 41.8242 51.7556 41.7544 52.0964 41.6147C52.4486 41.4633 52.7439 41.2479 52.9824 40.9685C53.2323 40.6891 53.4198 40.3457 53.5447 39.9382C53.6697 39.5307 53.7322 39.0651 53.7322 38.5412C53.7322 37.7495 53.6413 37.1325 53.4595 36.6901C53.2778 36.2477 53.0052 35.9334 52.6417 35.7471C52.2895 35.5608 51.8352 35.4677 51.2785 35.4677C50.9037 35.4677 50.5345 35.5434 50.171 35.6947C49.8075 35.8344 49.4781 36.0556 49.1828 36.3583L48.5864 35.555C48.9499 35.1825 49.3702 34.9031 49.8473 34.7168C50.3244 34.5305 50.8299 34.4374 51.3637 34.4374C51.8749 34.4374 52.3406 34.5014 52.7609 34.6295C53.1812 34.7575 53.539 34.9729 53.8344 35.2756C54.1411 35.5667 54.374 35.9625 54.533 36.4631C54.7034 36.9637 54.7886 37.5924 54.7886 38.3491V42.5926H53.4595V41.3702C53.3119 41.6612 53.1301 41.8999 52.9143 42.0862C52.7098 42.2724 52.4883 42.418 52.2498 42.5227C52.0112 42.6159 51.767 42.6799 51.5171 42.7148C51.2672 42.7614 51.0286 42.7847 50.8015 42.7847Z" fill="white"/>
<path d="M63.4273 42.5926V34.612H64.6201V36.0265C64.8245 35.7005 65.0631 35.4211 65.3357 35.1883C65.6083 34.9438 65.9093 34.7575 66.2388 34.6295C66.5682 34.4898 66.909 34.4199 67.2611 34.4199C67.6928 34.4199 68.079 34.5305 68.4198 34.7517C68.7605 34.9729 69.0331 35.328 69.2376 35.817C69.4421 36.3059 69.5443 36.9521 69.5443 37.7553V42.5926H68.3516V37.7903C68.3516 37.2315 68.2891 36.7891 68.1642 36.4631C68.0392 36.1255 67.8688 35.8868 67.653 35.7471C67.4372 35.5958 67.1929 35.5201 66.9203 35.5201C66.6591 35.5201 66.3921 35.5783 66.1195 35.6947C65.8582 35.8111 65.614 35.9799 65.3868 36.2011C65.1596 36.4107 64.9722 36.6668 64.8245 36.9695C64.6882 37.2722 64.6201 37.6156 64.6201 37.9998V42.5926H63.4273Z" fill="white"/>
<path d="M81.4716 42.7672C81.0399 42.7672 80.6253 42.7207 80.2277 42.6275C79.8415 42.5344 79.4724 42.3947 79.1202 42.2084C78.7794 42.0221 78.4614 41.7893 78.166 41.5099L78.8476 40.3224L78.9498 40.1652L79.0521 40.2351C79.0748 40.3282 79.0975 40.4272 79.1202 40.532C79.1543 40.6251 79.2338 40.7415 79.3588 40.8812C79.5973 41.1257 79.8813 41.3294 80.2107 41.4924C80.5515 41.6438 80.9831 41.7194 81.5057 41.7194C81.926 41.7194 82.2781 41.6671 82.5621 41.5623C82.8574 41.4575 83.0846 41.312 83.2436 41.1257C83.4027 40.9278 83.4822 40.7008 83.4822 40.4446C83.4822 40.27 83.4481 40.1187 83.38 39.9906C83.3118 39.8509 83.1982 39.7228 83.0392 39.6064C82.8915 39.49 82.6927 39.3736 82.4428 39.2572C82.1929 39.1407 81.8862 39.0243 81.5227 38.9079C80.932 38.7333 80.4152 38.5295 79.9722 38.2967C79.5291 38.0639 79.1884 37.7961 78.9498 37.4934C78.7113 37.1791 78.592 36.824 78.592 36.4282C78.592 36.0207 78.6999 35.6714 78.9157 35.3804C79.1316 35.0777 79.4496 34.8449 79.8699 34.6819C80.3016 34.5072 80.8298 34.4199 81.4545 34.4199C81.818 34.4199 82.1475 34.449 82.4428 34.5072C82.7381 34.5538 83.0108 34.6295 83.2607 34.7343C83.5106 34.839 83.7378 34.9729 83.9422 35.1359C84.1581 35.2872 84.3625 35.4677 84.5556 35.6773L83.857 36.5504L83.7378 36.6901L83.6526 36.6028C83.6412 36.5097 83.6128 36.4223 83.5674 36.3408C83.5333 36.2477 83.4538 36.1371 83.3288 36.0091C83.0676 35.7995 82.7722 35.6423 82.4428 35.5376C82.1134 35.4211 81.7953 35.3629 81.4886 35.3629C81.0343 35.3629 80.6424 35.4444 80.3129 35.6074C79.9835 35.7704 79.8188 36.0207 79.8188 36.3583C79.8188 36.5329 79.8756 36.7076 79.9892 36.8822C80.1141 37.0452 80.3357 37.214 80.6537 37.3886C80.9718 37.5516 81.4262 37.7204 82.0168 37.8951C82.6643 38.1046 83.1812 38.32 83.5674 38.5412C83.965 38.7507 84.2489 38.9952 84.4193 39.2746C84.6011 39.554 84.692 39.8858 84.692 40.27C84.692 40.7124 84.5727 41.1257 84.3341 41.5099C84.1069 41.8941 83.7548 42.2026 83.2777 42.4354C82.8006 42.6566 82.1986 42.7672 81.4716 42.7672Z" fill="white"/>
<path d="M94.9494 35.6074H93.2625V34.612H94.9494V33.9484C94.9494 33.2383 95.0687 32.6562 95.3072 32.2021C95.5571 31.7481 95.8979 31.4163 96.3296 31.2067C96.7612 30.9855 97.2553 30.8749 97.8119 30.8749C98.3004 30.8749 98.7548 30.9681 99.1751 31.1543C99.6067 31.329 99.9645 31.6026 100.249 31.9751L99.601 32.9006L99.4988 33.0403L99.3966 32.9705C99.3852 32.8774 99.3625 32.7842 99.3284 32.6911C99.2943 32.598 99.2148 32.4815 99.0899 32.3418C98.9081 32.1788 98.7264 32.0624 98.5446 31.9926C98.3629 31.9227 98.13 31.8878 97.846 31.8878C97.5166 31.8878 97.2213 31.9576 96.96 32.0973C96.6987 32.2254 96.4943 32.4408 96.3466 32.7435C96.1989 33.0345 96.1251 33.4362 96.1251 33.9484V34.612H98.6809V35.6074H96.1251V42.5926H94.9494V35.6074Z" fill="white"/>
<path d="M111.818 42.7672C111.25 42.7672 110.733 42.6799 110.267 42.5053C109.802 42.319 109.398 42.0512 109.058 41.702C108.728 41.3527 108.473 40.922 108.291 40.4097C108.109 39.8858 108.018 39.2921 108.018 38.6285C108.018 37.9533 108.109 37.3537 108.291 36.8298C108.484 36.3059 108.74 35.8693 109.058 35.5201C109.387 35.1592 109.768 34.8856 110.199 34.6993C110.642 34.5131 111.108 34.4199 111.596 34.4199C112.039 34.4199 112.454 34.4956 112.84 34.6469C113.227 34.7983 113.562 35.0311 113.846 35.3455C114.13 35.6482 114.351 36.0382 114.51 36.5155C114.681 36.9928 114.766 37.5574 114.766 38.2094C114.766 38.3025 114.76 38.4015 114.749 38.5063C114.749 38.5994 114.743 38.6925 114.732 38.7857H109.194C109.217 39.2979 109.302 39.7461 109.45 40.1303C109.597 40.5029 109.79 40.8114 110.029 41.0558C110.267 41.2887 110.54 41.4633 110.847 41.5797C111.165 41.6962 111.5 41.7544 111.852 41.7544C112.125 41.7544 112.38 41.7253 112.619 41.6671C112.857 41.5972 113.079 41.4982 113.283 41.3702C113.499 41.2305 113.692 41.0617 113.863 40.8638L114.544 41.5448C114.328 41.8126 114.078 42.0396 113.795 42.2259C113.522 42.4121 113.221 42.546 112.891 42.6275C112.562 42.7207 112.204 42.7672 111.818 42.7672ZM109.245 37.8077H113.522C113.522 37.4352 113.471 37.1034 113.369 36.8123C113.278 36.5097 113.141 36.2535 112.96 36.044C112.789 35.8228 112.579 35.6598 112.329 35.555C112.091 35.4386 111.818 35.3804 111.511 35.3804C111.239 35.3804 110.977 35.427 110.727 35.5201C110.489 35.6132 110.267 35.7646 110.063 35.9741C109.858 36.172 109.682 36.4223 109.535 36.725C109.398 37.0277 109.302 37.3886 109.245 37.8077Z" fill="white"/>
<path d="M124.205 34.612H125.483L125.432 36.9346L125.279 36.6726C125.347 36.3117 125.466 35.9916 125.637 35.7122C125.807 35.4328 126.011 35.1999 126.25 35.0137C126.489 34.8157 126.75 34.6702 127.034 34.5771C127.318 34.4723 127.613 34.4199 127.92 34.4199C128.329 34.4199 128.704 34.4956 129.044 34.6469C129.397 34.7866 129.709 35.002 129.982 35.2931L129.436 36.271L129.368 36.4282L129.249 36.3583C129.226 36.2652 129.192 36.1779 129.147 36.0964C129.101 36.0149 129.005 35.9159 128.857 35.7995C128.675 35.6831 128.505 35.6074 128.346 35.5725C128.198 35.5259 128.028 35.5026 127.835 35.5026C127.551 35.5026 127.267 35.5608 126.983 35.6773C126.699 35.782 126.437 35.9508 126.199 36.1837C125.972 36.4165 125.79 36.7134 125.654 37.0743C125.517 37.4352 125.449 37.8659 125.449 38.3666V42.6101H124.205V34.612Z" fill="white"/>
<path d="M144.318 45.6866C143.375 45.2326 142.552 44.6272 141.847 43.8705C141.154 43.1021 140.615 42.2406 140.229 41.2859C139.854 40.3197 139.666 39.3185 139.666 38.2823C139.666 37.2462 139.854 36.2624 140.229 35.3311C140.603 34.3881 141.132 33.5499 141.813 32.8164C142.495 32.0713 143.296 31.4776 144.216 31.0352L144.539 32.1179C143.994 32.4206 143.494 32.7931 143.04 33.2355C142.597 33.6779 142.211 34.1669 141.881 34.7024C141.563 35.2379 141.313 35.8142 141.132 36.4312C140.961 37.0483 140.876 37.6828 140.876 38.3347C140.876 38.9867 140.961 39.6211 141.132 40.2382C141.313 40.8552 141.569 41.4431 141.898 42.0019C142.228 42.5491 142.62 43.0497 143.074 43.5037C143.54 43.9461 144.062 44.3245 144.642 44.6388L144.318 45.6866Z" fill="white"/>
<path d="M154.848 45.6866L154.524 44.6388C155.104 44.3245 155.62 43.9461 156.075 43.5037C156.541 43.0497 156.938 42.5491 157.268 42.0019C157.597 41.4431 157.847 40.8552 158.017 40.2382C158.199 39.6211 158.29 38.9867 158.29 38.3347C158.29 37.6828 158.199 37.0483 158.017 36.4312C157.847 35.8142 157.597 35.2379 157.268 34.7024C156.949 34.1669 156.563 33.6779 156.109 33.2355C155.666 32.7931 155.172 32.4206 154.626 32.1179L154.95 31.0352C155.87 31.4776 156.671 32.0713 157.353 32.8164C158.034 33.5499 158.562 34.3881 158.937 35.3311C159.312 36.2624 159.5 37.2462 159.5 38.2823C159.5 39.3185 159.307 40.3197 158.92 41.2859C158.545 42.2406 158.006 43.1021 157.302 43.8705C156.609 44.6272 155.791 45.2326 154.848 45.6866Z" fill="white"/>
<path d="M0 0H0.415584V27.6852H0V0Z" fill="white"/>
<path d="M159.169 0H160V27.6852H159.169V0Z" fill="white"/>
<path d="M2.90909 0H5.81818V27.6852H2.90909V0Z" fill="white"/>
<path d="M8.72726 0H12.4675V27.6852H8.72726V0Z" fill="white"/>
<path d="M14.1299 0H15.3766V27.6852H14.1299V0Z" fill="white"/>
<path d="M18.2857 0H23.6883V27.6852H18.2857V0Z" fill="white"/>
<path d="M24.9351 0H26.1818V27.6852H24.9351V0Z" fill="white"/>
<path d="M29.0909 0H30.3377V27.6852H29.0909V0Z" fill="white"/>
<path d="M33.2468 0H34.4935V27.6852H33.2468V0Z" fill="white"/>
<path d="M37.4026 0H42.8052V27.6852H37.4026V0Z" fill="white"/>
<path d="M44.0519 0H45.2987V27.6852H44.0519V0Z" fill="white"/>
<path d="M48.2078 0H49.4545V27.6852H48.2078V0Z" fill="white"/>
<path d="M51.1169 0H53.6104V27.6852H51.1169V0Z" fill="white"/>
<path d="M59.013 0H61.9221V27.6852H59.013V0Z" fill="white"/>
<path d="M67.3247 0H68.5714V27.6852H67.3247V0Z" fill="white"/>
<path d="M70.2338 0H71.4805V27.6852H70.2338V0Z" fill="white"/>
<path d="M74.3896 0H75.6364V27.6852H74.3896V0Z" fill="white"/>
<path d="M85.1948 0H86.4416V27.6852H85.1948V0Z" fill="white"/>
<path d="M89.3506 0H90.5974V27.6852H89.3506V0Z" fill="white"/>
<path d="M100.156 0H101.403V27.6852H100.156V0Z" fill="white"/>
<path d="M112.623 0H113.87V27.6852H112.623V0Z" fill="white"/>
<path d="M119.273 0H120.519V27.6852H119.273V0Z" fill="white"/>
<path d="M123.429 0H124.675V27.6852H123.429V0Z" fill="white"/>
<path d="M134.649 0H135.896V27.6852H134.649V0Z" fill="white"/>
<path d="M145.455 0H146.701V27.6852H145.455V0Z" fill="white"/>
<path d="M155.013 0H156.26V27.6852H155.013V0Z" fill="white"/>
<path d="M104.312 0H105.558V27.6852H104.312V0Z" fill="white"/>
<path d="M76.8831 0H82.2857V27.6852H76.8831V0Z" fill="white"/>
<path d="M127.584 0H132.987V27.6852H127.584V0Z" fill="white"/>
<path d="M91.8442 0H94.7532V27.6852H91.8442V0Z" fill="white"/>
<path d="M106.805 0H109.714V27.6852H106.805V0Z" fill="white"/>
<path d="M139.636 0H142.545V27.6852H139.636V0Z" fill="white"/>
<path d="M149.195 0H152.104V27.6852H149.195V0Z" fill="white"/>
</g>
<defs>
<clipPath id="clip0_163_4">
<rect width="160" height="46" fill="white"/>
</clipPath>
</defs>
</svg>
